<svg width="121" height="22" viewBox="0 0 121 22" fill="none" xmlns="http://www.w3.org/2000/svg">
<path fill-rule="evenodd" clip-rule="evenodd" d="M90.9774 0C86.0647 0 81.5158 1.32759 81.5158 6.06897V15.7414C81.5158 20.6724 86.0647 22 90.9774 22C95.8902 22 100.439 20.6724 100.439 15.7414V6.25862C100.257 1.32759 95.8902 0 90.9774 0ZM90.9774 4.55172C92.615 4.55172 92.979 5.31035 92.979 6.25862V16.1207C92.979 17.069 92.615 17.8276 90.9774 17.8276C89.3399 17.8276 88.9759 17.069 88.9759 16.1207V6.25862C88.9759 5.31035 89.3399 4.55172 90.9774 4.55172ZM102.259 0.379319V21.6207H106.626V8.53448L111.72 21.6207H121V0.379319H116.633L116.451 13.6552L111.174 0.379319H102.259ZM7.09623 4.93104C10.5534 4.93104 11.4632 5.12069 11.4632 6.63793C11.4632 8.34482 10.5534 8.53448 7.09623 8.53448V4.93104ZM26.3835 12.7069L27.6572 7.39655L29.1128 12.7069C32.5699 12.8966 35.4812 13.6552 36.7549 14.4138L34.0256 0.568971H24.0181L20.7428 14.0345C16.7398 14.2241 13.8286 15.7414 10.7353 17.8276C10.5534 18.0172 10.5534 17.8276 10.3715 17.6379C9.64363 17.8276 8.73383 17.8276 7.2782 17.8276V13.2759C10.5534 13.2759 11.6451 13.6552 11.6451 15.5517C11.6451 15.7414 11.6451 15.7414 11.6451 15.7414C12.9188 14.7931 15.4662 13.6552 18.9233 13.0862C18.3774 11.9483 17.2857 11.1897 16.0121 10.6207C17.8316 10.0517 19.2872 9.2931 19.2872 5.68965C19.2872 1.32759 14.1925 0.568971 7.64213 0.568971H0V21.8103H7.64213C11.2812 21.8103 14.0106 21.8103 16.0121 21.2414C16.5579 21.0517 17.1038 20.8621 17.4677 20.4828C18.0135 20.2931 18.5594 19.9138 19.2872 19.7241L18.7414 21.6207H24.3819L24.9278 19.5345H30.3865L30.9323 21.6207H38.2105L38.0286 20.2931C41.1218 21.2414 44.7609 22 47.1263 22C53.1308 21.8103 56.588 19.7241 56.588 15.7414C56.588 4.74138 43.6692 9.2931 43.6692 6.25862C43.6692 5.87931 43.8511 5.31035 44.5789 5.31035H58.0436V21.8103H65.1399V5.31035H70.7804V0.758623H46.9444C41.4857 0.758623 36.391 1.51725 36.391 7.77587C36.391 16.5 48.218 13.2759 48.218 17.2586C48.218 19.1552 40.7579 17.2586 36.7549 15.931C33.8436 15.1724 29.6587 14.2241 26.0196 14.2241L26.3835 12.7069ZM79.3323 0.379319H72.0541V21.6207H79.1504V0.379319H79.3323Z" fill="#494949"/>
</svg>
