<svg width="259" height="45" viewBox="0 0 259 45" fill="none" xmlns="http://www.w3.org/2000/svg">
<path fill-rule="evenodd" clip-rule="evenodd" d="M194.737 0C184.221 0 174.484 2.71553 174.484 12.4138V32.1983C174.484 42.2845 184.221 45 194.737 45C205.253 45 214.99 42.2845 214.99 32.1983V12.8017C214.6 2.71553 205.253 0 194.737 0ZM194.737 9.31035C198.242 9.31035 199.021 10.8621 199.021 12.8017V32.9741C199.021 34.9138 198.242 36.4655 194.737 36.4655C191.232 36.4655 190.453 34.9138 190.453 32.9741V12.8017C190.453 10.8621 191.232 9.31035 194.737 9.31035ZM218.884 0.775879V44.2241H228.232V17.4569L239.137 44.2241H259V0.775879H249.653L249.263 27.931L237.968 0.775879H218.884ZM15.1894 10.0862C22.5894 10.0862 24.5369 10.4741 24.5369 13.5776C24.5369 17.069 22.5894 17.4569 15.1894 17.4569V10.0862ZM56.4737 25.9914L59.2 15.1293L62.3158 25.9914C69.7158 26.3793 75.9474 27.931 78.6737 29.4828L72.8316 1.1638H51.4106L44.4 28.7069C35.8316 29.0948 29.6 32.1983 22.9789 36.4655C22.5894 36.8534 22.5895 36.4655 22.2 36.0776C20.6422 36.4655 18.6947 36.4655 15.5789 36.4655V27.1552C22.5895 27.1552 24.9263 27.931 24.9263 31.8103C24.9263 32.1983 24.9263 32.1983 24.9263 32.1983C27.6526 30.2586 33.1052 27.931 40.5052 26.7672C39.3368 24.4396 37.0001 22.8879 34.2738 21.7241C38.1685 20.5604 41.2842 19.0086 41.2842 11.6379C41.2842 2.71552 30.379 1.1638 16.3579 1.1638H0V44.612H16.3579C24.1474 44.612 29.9895 44.6121 34.2738 43.4483C35.4422 43.0603 36.6105 42.6724 37.3895 41.8965C38.5579 41.5086 39.7263 40.7327 41.2842 40.3448L40.1159 44.2241H52.1894L53.3579 39.9569H65.0422L66.2105 44.2241H81.7895L81.4 41.5086C88.021 43.4483 95.8105 45 100.874 45C113.726 44.6121 121.126 40.3448 121.126 32.1983C121.126 9.69828 93.4737 19.0086 93.4737 12.8017C93.4737 12.0259 93.8632 10.8621 95.4211 10.8621H124.242V44.612H139.432V10.8621H151.505V1.55173H100.484C88.8001 1.55173 77.8947 3.10347 77.8947 15.9052C77.8947 33.75 103.211 27.1552 103.211 35.3017C103.211 39.181 87.2421 35.3017 78.6737 32.5862C72.4422 31.0345 63.4843 29.0948 55.6948 29.0948L56.4737 25.9914ZM169.811 0.775879H154.232V44.2241H169.421V0.775879H169.811Z" fill="white"/>
</svg>
