<svg width="20" height="14" viewBox="0 0 20 14" fill="none" xmlns="http://www.w3.org/2000/svg">
<path fill-rule="evenodd" clip-rule="evenodd" d="M0.565772 0.0707389C0.175999 0.263566 -0.0253283 0.611784 0.00255287 1.045C0.0242278 1.38144 0.163069 1.62301 0.448182 1.82031L0.628916 1.94537H10.0088H19.3888L19.5695 1.82031C19.6689 1.75151 19.8064 1.61378 19.8751 1.51423C19.9831 1.35771 20 1.28548 20 0.980062C20 0.674647 19.9831 0.602414 19.8751 0.445892C19.8064 0.346347 19.6689 0.208613 19.5695 0.139817L19.3888 0.0147507L10.0559 0.00387311C1.46136 -0.00615671 0.710491 -0.00088254 0.565772 0.0707389ZM0.565772 6.09805C0.175999 6.29088 -0.0253283 6.6391 0.00255287 7.07231C0.0242278 7.40876 0.163069 7.65032 0.448182 7.84762L0.628916 7.97269H10.0088H19.3888L19.5695 7.84762C19.6689 7.77882 19.8064 7.64109 19.8751 7.54155C19.9831 7.38502 20 7.31279 20 7.00737C20 6.70196 19.9831 6.62973 19.8751 6.4732C19.8064 6.37366 19.6689 6.23593 19.5695 6.16713L19.3888 6.04206L10.0559 6.03119C1.46136 6.02116 0.710491 6.02643 0.565772 6.09805ZM0.565772 12.1254C0.175999 12.3182 -0.0253283 12.6664 0.00255287 13.0996C0.0242278 13.4361 0.163069 13.6776 0.448182 13.8749L0.628916 14H10.0088H19.3888L19.5695 13.8749C19.6689 13.8061 19.8064 13.6684 19.8751 13.5689C19.9831 13.4123 20 13.3401 20 13.0347C20 12.7293 19.9831 12.657 19.8751 12.5005C19.8064 12.401 19.6689 12.2632 19.5695 12.1944L19.3888 12.0694L10.0559 12.0585C1.46136 12.0485 0.710491 12.0537 0.565772 12.1254Z" fill="#101010"/>
</svg>
