<svg width="171" height="40" viewBox="0 0 171 40" fill="none" xmlns="http://www.w3.org/2000/svg">
<rect x="0.5" y="0.5" width="170" height="39" stroke="white"/>
<path d="M152.061 21.0607C152.646 20.4749 152.646 19.5251 152.061 18.9393L142.515 9.3934C141.929 8.80761 140.979 8.80761 140.393 9.3934C139.808 9.97919 139.808 10.9289 140.393 11.5147L148.879 20L140.393 28.4853C139.808 29.0711 139.808 30.0208 140.393 30.6066C140.979 31.1924 141.929 31.1924 142.515 30.6066L152.061 21.0607ZM131 18.5C130.172 18.5 129.5 19.1716 129.5 20C129.5 20.8284 130.172 21.5 131 21.5V18.5ZM151 18.5L131 18.5V21.5L151 21.5V18.5Z" fill="white"/>
<path d="M51.2305 13.3174V26H52.8125V21.4736H55.7393C58.1211 21.4736 59.8174 19.7949 59.8174 17.3867C59.8174 14.9873 58.1387 13.3174 55.7568 13.3174H51.2305ZM52.8125 14.7236H55.3438C57.1631 14.7236 58.1914 15.708 58.1914 17.3867C58.1914 19.0742 57.1543 20.0674 55.3438 20.0674H52.8125V14.7236ZM61.3994 26H62.9287V20.3047C62.9287 19.0127 63.7021 18.1602 64.8887 18.1602C65.2578 18.1602 65.583 18.2041 65.7061 18.248V16.7627C65.583 16.7451 65.3545 16.7012 65.0908 16.7012C64.0186 16.7012 63.1748 17.3428 62.876 18.3535H62.8408V16.8594H61.3994V26ZM70.3027 26.1582C72.8252 26.1582 74.5303 24.3389 74.5303 21.4297C74.5303 18.5117 72.8252 16.7012 70.3027 16.7012C67.7715 16.7012 66.0664 18.5117 66.0664 21.4297C66.0664 24.3389 67.7715 26.1582 70.3027 26.1582ZM70.3027 24.8135C68.6855 24.8135 67.6221 23.583 67.6221 21.4297C67.6221 19.2764 68.6855 18.0459 70.3027 18.0459C71.9199 18.0459 72.9746 19.2764 72.9746 21.4297C72.9746 23.583 71.9199 24.8135 70.3027 24.8135ZM76.9121 15.2334C77.4482 15.2334 77.8701 14.8027 77.8701 14.2754C77.8701 13.7393 77.4482 13.3174 76.9121 13.3174C76.3848 13.3174 75.9541 13.7393 75.9541 14.2754C75.9541 14.8027 76.3848 15.2334 76.9121 15.2334ZM77.6855 16.8594H76.1562V26.4658C76.1562 27.4854 75.7959 27.8633 74.8027 27.8633H74.5654V29.1377C74.583 29.1465 74.8291 29.1465 74.8555 29.1465C76.8066 29.1465 77.6855 28.3027 77.6855 26.4482V16.8594ZM85.8154 23.3809C85.5605 24.2422 84.708 24.8311 83.5479 24.8311C81.9043 24.8311 80.876 23.6797 80.876 21.9307V21.8428H87.4326V21.2627C87.4326 18.4941 85.9121 16.7012 83.4424 16.7012C80.9199 16.7012 79.3027 18.626 79.3027 21.4648C79.3027 24.3389 80.8936 26.1582 83.5127 26.1582C85.5078 26.1582 87.0547 24.9805 87.3184 23.3809H85.8154ZM83.416 18.0283C84.8574 18.0283 85.8154 19.1182 85.8506 20.6475H80.8848C80.9814 19.127 81.9834 18.0283 83.416 18.0283ZM96.5732 19.8564C96.3799 18.2129 95.0176 16.7012 92.7324 16.7012C90.21 16.7012 88.5312 18.5469 88.5312 21.4297C88.5312 24.374 90.2188 26.1582 92.75 26.1582C94.8242 26.1582 96.3535 24.875 96.5908 23.0557H95.0879C94.8242 24.1543 94.0068 24.8135 92.7588 24.8135C91.1768 24.8135 90.0869 23.5566 90.0869 21.4297C90.0869 19.3555 91.1592 18.0459 92.7412 18.0459C94.0859 18.0459 94.8594 18.8633 95.0791 19.8564H96.5732ZM98.4893 14.6533V16.8594H97.127V18.1162H98.4893V23.627C98.4893 25.3848 99.1396 26.0703 100.818 26.0703C101.179 26.0703 101.601 26.0439 101.785 26V24.7168C101.68 24.7344 101.328 24.7607 101.152 24.7607C100.37 24.7607 100.019 24.3828 100.019 23.5479V18.1162H101.794V16.8594H100.019V14.6533H98.4893ZM103.271 19.3818C103.271 20.7002 104.105 21.5 105.828 21.9131L107.278 22.2646C108.324 22.5195 108.685 22.8975 108.685 23.5566C108.685 24.3828 107.92 24.9102 106.681 24.9102C105.441 24.9102 104.738 24.4092 104.554 23.3633H103.024C103.2 25.0771 104.536 26.1582 106.681 26.1582C108.72 26.1582 110.223 25.0332 110.223 23.4424C110.223 22.1328 109.555 21.4121 107.709 20.9639L106.259 20.6123C105.239 20.3662 104.773 19.9355 104.773 19.3027C104.773 18.5029 105.512 17.9492 106.628 17.9492C107.753 17.9492 108.456 18.5381 108.57 19.4961H110.029C109.968 17.8789 108.632 16.7012 106.628 16.7012C104.65 16.7012 103.271 17.8174 103.271 19.3818Z" fill="white"/>
</svg>
