<svg width="171" height="40" viewBox="0 0 171 40" fill="none" xmlns="http://www.w3.org/2000/svg">
<rect x="0.5" y="0.5" width="170" height="39" stroke="white"/>
<path d="M152.061 21.0607C152.646 20.4749 152.646 19.5251 152.061 18.9393L142.515 9.3934C141.929 8.80761 140.979 8.80761 140.393 9.3934C139.808 9.97919 139.808 10.9289 140.393 11.5147L148.879 20L140.393 28.4853C139.808 29.0711 139.808 30.0208 140.393 30.6066C140.979 31.1924 141.929 31.1924 142.515 30.6066L152.061 21.0607ZM131 18.5C130.172 18.5 129.5 19.1716 129.5 20C129.5 20.8284 130.172 21.5 131 21.5V18.5ZM151 18.5L131 18.5V21.5L151 21.5V18.5Z" fill="white"/>
<path d="M61.2588 26V13.3174H51.3184V26H52.9092V14.7588H59.6943V26H61.2588ZM68.1055 16.7012C66.7783 16.7012 65.7148 17.3779 65.1523 18.4062H65.1172V16.8594H63.667V29.0498H65.1963V24.5146H65.2314C65.7764 25.5166 66.8311 26.1582 68.1406 26.1582C70.4434 26.1582 72.0166 24.2949 72.0166 21.4297C72.0166 18.5645 70.4346 16.7012 68.1055 16.7012ZM67.8066 24.8135C66.2422 24.8135 65.1875 23.4688 65.1875 21.4297C65.1875 19.3994 66.2422 18.0459 67.8066 18.0459C69.4326 18.0459 70.4521 19.3643 70.4521 21.4297C70.4521 23.5039 69.4326 24.8135 67.8066 24.8135ZM77.5273 26.1582C80.0498 26.1582 81.7549 24.3389 81.7549 21.4297C81.7549 18.5117 80.0498 16.7012 77.5273 16.7012C74.9961 16.7012 73.291 18.5117 73.291 21.4297C73.291 24.3389 74.9961 26.1582 77.5273 26.1582ZM77.5273 24.8135C75.9102 24.8135 74.8467 23.583 74.8467 21.4297C74.8467 19.2764 75.9102 18.0459 77.5273 18.0459C79.1445 18.0459 80.1992 19.2764 80.1992 21.4297C80.1992 23.583 79.1445 24.8135 77.5273 24.8135ZM89.542 23.3809C89.2871 24.2422 88.4346 24.8311 87.2744 24.8311C85.6309 24.8311 84.6025 23.6797 84.6025 21.9307V21.8428H91.1592V21.2627C91.1592 18.4941 89.6387 16.7012 87.1689 16.7012C84.6465 16.7012 83.0293 18.626 83.0293 21.4648C83.0293 24.3389 84.6201 26.1582 87.2393 26.1582C89.2344 26.1582 90.7812 24.9805 91.0449 23.3809H89.542ZM87.1426 18.0283C88.584 18.0283 89.542 19.1182 89.5771 20.6475H84.6113C84.708 19.127 85.71 18.0283 87.1426 18.0283ZM94.4727 21.6055L98.4014 26H100.37L95.9932 21.1836L100.247 16.8594H98.3574L94.4727 20.9023H94.4023V16.8594H92.873V26H94.4023V21.6055H94.4727ZM108.157 16.8594H100.739V18.1162H103.684V26H105.213V18.1162H108.157V16.8594ZM117.395 26H118.906V16.8594H117.395V26ZM109.572 26H112.815C114.907 26 116.252 24.7959 116.252 22.8887C116.252 20.9814 114.907 19.7773 112.815 19.7773H111.102V16.8594H109.572V26ZM112.789 21.0342C113.967 21.0342 114.74 21.7637 114.74 22.8887C114.74 24.0049 113.976 24.7432 112.789 24.7432H111.102V21.0342H112.789Z" fill="white"/>
</svg>
