<svg width="65" height="65" viewBox="0 0 65 65" fill="none" xmlns="http://www.w3.org/2000/svg">
<path d="M45.2071 34.2071C45.5976 33.8166 45.5976 33.1834 45.2071 32.7929L38.8431 26.4289C38.4526 26.0384 37.8195 26.0384 37.4289 26.4289C37.0384 26.8195 37.0384 27.4526 37.4289 27.8431L43.0858 33.5L37.4289 39.1569C37.0384 39.5474 37.0384 40.1805 37.4289 40.5711C37.8195 40.9616 38.4526 40.9616 38.8431 40.5711L45.2071 34.2071ZM22 32.5C21.4477 32.5 21 32.9477 21 33.5C21 34.0523 21.4477 34.5 22 34.5L22 32.5ZM44.5 32.5L22 32.5L22 34.5L44.5 34.5L44.5 32.5Z" fill="#101010"/>
<circle cx="32.5" cy="32.5" r="31.5" transform="rotate(-90 32.5 32.5)" stroke="#101010" stroke-width="2"/>
</svg>
