<svg width="65" height="65" viewBox="0 0 65 65" fill="none" xmlns="http://www.w3.org/2000/svg">
<path d="M30.7929 45.2071C31.1834 45.5976 31.8166 45.5976 32.2071 45.2071L38.5711 38.8431C38.9616 38.4526 38.9616 37.8195 38.5711 37.4289C38.1805 37.0384 37.5474 37.0384 37.1569 37.4289L31.5 43.0858L25.8431 37.4289C25.4526 37.0384 24.8195 37.0384 24.4289 37.4289C24.0384 37.8195 24.0384 38.4526 24.4289 38.8431L30.7929 45.2071ZM32.5 22C32.5 21.4477 32.0523 21 31.5 21C30.9477 21 30.5 21.4477 30.5 22L32.5 22ZM32.5 44.5L32.5 22L30.5 22L30.5 44.5L32.5 44.5Z" fill="white"/>
<circle cx="32.5" cy="32.5" r="31.5" stroke="white" stroke-width="2"/>
</svg>
