<svg width="114" height="915" viewBox="0 0 114 915" fill="none" xmlns="http://www.w3.org/2000/svg">
<path d="M61.1529 0.680176V2.62418H82.9449V0.680176H61.1529Z" fill="white" fill-opacity="0.65"/>
<path d="M70.7769 20.6562C70.6089 23.8242 70.6089 35.2722 60.8889 40.2402C61.4409 40.6002 62.0169 41.1762 62.3289 41.6082C68.4009 38.3202 70.8729 32.5362 71.9289 27.7362C73.0809 32.5362 75.7209 38.6802 81.9129 41.6082C82.1769 41.1282 82.7289 40.5282 83.2329 40.1442C74.2089 36.0162 72.9129 24.9282 72.6969 21.7602C72.7209 21.3522 72.7209 20.9682 72.7449 20.6562H70.7769Z" fill="white" fill-opacity="0.65"/>
<path d="M72.0729 68.2322C70.3689 68.2322 70.0329 67.8962 70.0329 66.4322V58.8242L82.8009 56.8082L82.5129 55.0082L70.0329 57.0242V49.3442H68.1609V57.3122L61.2729 58.4162L61.5609 60.1922L68.1609 59.1362V66.4082C68.1609 69.2402 69.0489 69.9842 72.0009 69.9842H78.2649C81.1929 69.9842 81.7689 68.6402 82.0809 64.7042C81.5769 64.5602 80.7369 64.2002 80.2809 63.8642C80.0409 67.4162 79.8009 68.2322 78.2169 68.2322H72.0729Z" fill="white" fill-opacity="0.65"/>
<path d="M66.9129 84.2962C66.2649 89.3602 64.7529 95.2402 61.0329 98.6002C61.4889 98.9122 62.1609 99.5362 62.4969 99.8962C66.3849 96.2722 68.0409 90.1042 68.9529 84.5842L66.9129 84.2962ZM66.2889 79.7842V81.6562H74.5689C75.3369 89.4322 77.0169 96.2242 81.2409 99.8242C81.6729 99.3922 82.4409 98.7442 82.9689 98.4082C78.5769 95.0482 76.9449 87.9202 76.2249 79.7842H66.2889Z" fill="white" fill-opacity="0.65"/>
<path d="M78.3609 126.736C77.5929 126.736 77.4729 126.592 77.4729 125.752V113.056H76.7529V113.032H70.2969C70.3929 111.136 70.3929 109.168 70.4169 107.176H68.5209C68.5209 109.192 68.5209 111.16 68.4489 113.032H61.9929V114.808H68.3289C67.8729 120.256 66.3129 124.84 60.8889 127.408C61.3689 127.744 61.9689 128.392 62.2089 128.824C67.9929 125.896 69.6729 120.808 70.1769 114.808H75.6729V125.728C75.6729 127.912 76.2489 128.488 78.0969 128.488H80.9289C82.7049 128.488 83.1609 127.408 83.3289 124.072C82.8489 123.928 82.0809 123.64 81.6729 123.28C81.6009 126.16 81.4809 126.736 80.8089 126.736H78.3609Z" fill="white" fill-opacity="0.65"/>
<path d="M82.7769 144.84H72.9849V135.96H71.0889V144.84H61.4169V146.664H71.0889V157.824H72.9849V146.664H82.7769V144.84Z" fill="white" fill-opacity="0.65"/>
<path d="M65.5209 166.376V168.152H71.4249C71.4729 169.064 71.5689 170.12 71.7369 171.224L70.6809 171.056C69.2169 177.776 66.2649 182.6 60.9609 185.36C61.4409 185.672 62.2329 186.416 62.5689 186.776C67.3449 183.968 70.3689 179.6 72.1449 173.384C73.2249 177.92 75.7689 183.176 81.6729 186.752C81.9849 186.32 82.7049 185.552 83.1129 185.264C73.7049 179.672 73.1529 170.624 73.1529 166.376H65.5209Z" fill="white" fill-opacity="0.65"/>
<path d="M63.4569 197.368V199.264H80.5689V197.368H63.4569ZM61.4409 211.504V213.448H82.5849V211.504H61.4409Z" fill="white" fill-opacity="0.65"/>
<path d="M63.0249 225.24V227.016H81.0249V225.24H63.0249ZM64.5609 233.016V234.816H79.1529V233.016H64.5609ZM61.6569 241.296V243.096H82.3209V241.296H61.6569Z" fill="white" fill-opacity="0.65"/>
<path d="M72.1449 270.92V261.416H81.0729V259.64H72.1449V252.296H70.2729V270.92H61.3209V272.696H82.7049V270.92H72.1449Z" fill="white" fill-opacity="0.65"/>
<path d="M82.6089 284.464V282.688H61.4169V284.464H70.5849V302.8H72.4809V290.176C75.2169 291.64 78.4329 293.608 80.0649 294.952L81.3129 293.344C79.4169 291.904 75.6489 289.744 72.7929 288.376L72.4809 288.736V284.464H82.6089Z" fill="white" fill-opacity="0.65"/>
<path d="M82.5369 318.6V316.776H72.6249C72.9609 314.256 72.9849 311.88 73.0089 309.96H71.0889C71.0649 311.856 71.0889 314.256 70.7289 316.776H61.5849V318.6H70.4409C69.4569 323.136 67.0569 327.744 61.1049 330.336C61.6089 330.696 62.1849 331.32 62.4489 331.8C68.2809 329.136 70.8729 324.528 72.0249 319.92C73.9209 325.368 76.9689 329.616 81.5769 331.8C81.8889 331.272 82.4889 330.528 82.9209 330.12C78.2889 328.224 75.1689 323.88 73.4889 318.6H82.5369Z" fill="white" fill-opacity="0.65"/>
<path d="M77.0409 346.424C76.2969 349.808 75.1449 352.4 73.2729 354.368C71.1369 353.408 68.9529 352.544 66.9369 351.848C67.6809 350.192 68.4729 348.32 69.2649 346.424H77.0409ZM82.8009 346.424V344.624H70.0089C70.7769 342.752 71.4969 340.928 72.1209 339.272L70.2249 338.936C69.6009 340.664 68.8329 342.632 68.0169 344.624H61.2969V346.424H67.2729C66.0969 349.232 64.8969 351.944 63.9369 353.912L65.6889 354.56C65.8569 354.2 66.0489 353.792 66.2409 353.384C68.0409 354.056 69.9369 354.848 71.7849 355.688C69.3849 357.464 66.0969 358.568 61.4889 359.192C61.8489 359.624 62.2329 360.344 62.4249 360.872C67.5129 360.128 71.1129 358.784 73.7049 356.624C76.5849 358.064 79.1769 359.6 80.8809 360.944L82.2249 359.312C80.4969 358.016 77.9289 356.576 75.1209 355.232C77.0409 353.024 78.2409 350.144 79.0089 346.424H82.8009Z" fill="white" fill-opacity="0.65"/>
<path d="M82.4409 371.464V369.736H61.5609V371.464H68.0169C67.8729 377.584 67.5369 384.976 60.8889 388.504C61.3689 388.84 61.8969 389.416 62.1849 389.896C66.9129 387.256 68.6889 382.792 69.3849 378.088H78.3609C78.0249 384.424 77.6169 387.064 76.8969 387.712C76.6089 387.976 76.3209 388.024 75.7689 388.024C75.1209 388.024 73.3929 388.024 71.5929 387.832C71.9529 388.336 72.1929 389.056 72.2169 389.584C73.8729 389.704 75.5289 389.752 76.4409 389.68C77.3529 389.608 77.9289 389.416 78.4809 388.816C79.4169 387.808 79.8009 384.952 80.2329 377.224C80.2569 376.984 80.2569 376.36 80.2569 376.36H69.6009C69.7689 374.704 69.8409 373.048 69.8889 371.464H82.4409Z" fill="white" fill-opacity="0.65"/>
<path d="M72.8889 416.04V406.368H81.1689V404.616H72.8889V397.008H71.0169V404.616H62.8569V406.368H71.0169V416.04H61.3449V417.792H82.7049V416.04H72.8889Z" fill="white" fill-opacity="0.65"/>
<path d="M79.6569 431.576V443.792H72.8169V426.416H70.9929V443.792H64.3929V431.6H62.5929V447.536H64.3929V445.592H79.6569V447.44H81.4809V431.576H79.6569Z" fill="white" fill-opacity="0.65"/>
<path d="M82.7049 464.32H72.8649V458.32C75.6729 457.864 78.2649 457.336 80.3529 456.712L78.9849 455.248C75.1929 456.448 68.4249 457.384 62.6169 457.912C62.8089 458.32 63.0729 459.04 63.1209 459.496C65.6649 459.28 68.3769 458.992 71.0169 458.608V464.32H61.3449V466.072H71.0169V476.848H72.8649V466.072H82.7049V464.32Z" fill="white" fill-opacity="0.65"/>
<path d="M63.8889 485.232V493.32C63.8889 497.424 63.5769 501.552 60.7689 504.768C61.2009 505.032 61.9209 505.608 62.2329 506.016C65.3289 502.464 65.6889 497.904 65.6889 493.344V485.232H63.8889ZM71.4729 486.216V503.736H73.2729V486.216H71.4729ZM79.4889 485.16V505.8H81.3129V485.16H79.4889Z" fill="white" fill-opacity="0.65"/>
<path d="M82.8489 523.568H72.9609V521.216C75.6249 519.776 78.7689 517.544 80.8089 515.48L79.5129 514.496L79.0809 514.592H63.6969V516.32H77.2089C75.8169 517.52 73.9689 518.792 72.2649 519.728H71.1369V523.568H61.2249V525.344H71.1369V532.52C71.1369 532.952 70.9929 533.072 70.4649 533.096C69.9609 533.12 68.1849 533.12 66.2649 533.048C66.5769 533.552 66.8889 534.368 67.0329 534.872C69.3129 534.896 70.8729 534.848 71.7609 534.56C72.6489 534.272 72.9609 533.72 72.9609 532.52V525.344H82.8489V523.568Z" fill="white" fill-opacity="0.65"/>
<path d="M71.1609 542.272V561.352C71.1609 561.832 70.9689 562 70.4649 562C70.0089 562.024 68.2809 562.048 66.5289 561.976C66.8169 562.48 67.1529 563.32 67.2729 563.824C69.5049 563.848 70.9929 563.8 71.8569 563.512C72.6969 563.2 73.0569 562.672 73.0569 561.352V542.272H71.1609ZM76.8969 548.32C78.9369 551.752 80.8569 556.216 81.4329 559.048L83.3049 558.256C82.7049 555.4 80.6889 551.032 78.5769 547.672L76.8969 548.32ZM64.8969 547.84C64.3209 551.056 63.0009 555.184 60.8649 557.704C61.3449 557.896 62.1129 558.328 62.5449 558.64C64.7049 555.976 66.0969 551.68 66.8649 548.2L64.8969 547.84Z" fill="white" fill-opacity="0.65"/>
<path d="M64.9449 588.408V575.184H79.0569V588.408H64.9449ZM63.1449 573.408V592.248H64.9449V590.208H79.0569V592.128H80.9529V573.408H63.1449Z" fill="white" fill-opacity="0.65"/>
<path d="M82.7769 612.272H72.9369V608.384H81.4329V606.68H72.9369V602.792C75.7689 602.456 78.3849 602 80.4249 601.376L79.0809 599.96C75.4809 601.088 68.5209 601.712 62.8569 601.976C63.0249 602.384 63.2409 603.08 63.3129 603.56C65.7849 603.44 68.4969 603.272 71.1369 602.984V606.68H62.8809V608.384H71.1369V612.272H61.2729V614.024H71.1369V619.328C71.1369 619.832 70.9209 620 70.3929 620C69.8409 620.024 67.9689 620.048 65.9529 619.976C66.2409 620.456 66.5769 621.248 66.7209 621.752C69.2409 621.776 70.7769 621.728 71.6649 621.44C72.5529 621.152 72.9369 620.624 72.9369 619.352V614.024H82.7769V612.272Z" fill="white" fill-opacity="0.65"/>
<path d="M76.8489 640V647.776H68.7369C69.2409 645.616 69.8169 642.856 70.3689 640H76.8489ZM78.6489 647.776V638.248H70.7289C71.0649 636.448 71.4009 634.648 71.6889 632.992H80.9049V631.24H62.9529V632.992H69.7449C69.4809 634.648 69.1689 636.424 68.8089 638.248H63.8889V640H68.4729C67.9209 642.832 67.3209 645.592 66.7929 647.776H61.4409V649.504H82.6329V647.776H78.6489Z" fill="white" fill-opacity="0.65"/>
<path d="M66.1209 676.248V669.552H78.0249V676.248H66.1209ZM78.0249 661.32V667.8H66.1209V661.32H78.0249ZM64.3209 659.568V679.56H66.1209V678H78.0249V679.464H79.8969V659.568H64.3209Z" fill="white" fill-opacity="0.65"/>
<path d="M1.15294 699.68V701.624H22.9449V699.68H1.15294Z" fill="white" fill-opacity="0.65"/>
<path d="M41.0582 690.656C40.8902 693.824 40.8902 705.272 31.1702 710.24C31.7222 710.6 32.2982 711.176 32.6102 711.608C38.6822 708.32 41.1542 702.536 42.2102 697.736C43.3622 702.536 46.0022 708.68 52.1942 711.608C52.4582 711.128 53.0102 710.528 53.5142 710.144C44.4902 706.016 43.1942 694.928 42.9782 691.76C43.0022 691.352 43.0022 690.968 43.0262 690.656H41.0582Z" fill="white" fill-opacity="0.65"/>
<path d="M72.6354 709.232C70.9314 709.232 70.5954 708.896 70.5954 707.432V699.824L83.3634 697.808L83.0754 696.008L70.5954 698.024V690.344H68.7234V698.312L61.8354 699.416L62.1234 701.192L68.7234 700.136V707.408C68.7234 710.24 69.6114 710.984 72.5634 710.984H78.8274C81.7554 710.984 82.3314 709.64 82.6434 705.704C82.1394 705.56 81.2994 705.2 80.8434 704.864C80.6034 708.416 80.3634 709.232 78.7794 709.232H72.6354Z" fill="white" fill-opacity="0.65"/>
<path d="M6.91294 725.296C6.26494 730.36 4.75294 736.24 1.03294 739.6C1.48894 739.912 2.16094 740.536 2.49694 740.896C6.38494 737.272 8.04094 731.104 8.95294 725.584L6.91294 725.296ZM6.28894 720.784V722.656H14.5689C15.3369 730.432 17.0169 737.224 21.2409 740.824C21.6729 740.392 22.4409 739.744 22.9689 739.408C18.5769 736.048 16.9449 728.92 16.2249 720.784H6.28894Z" fill="white" fill-opacity="0.65"/>
<path d="M48.6422 738.736C47.8742 738.736 47.7542 738.592 47.7542 737.752V725.056H47.0342V725.032H40.5782C40.6742 723.136 40.6742 721.168 40.6982 719.176H38.8022C38.8022 721.192 38.8022 723.16 38.7302 725.032H32.2742V726.808H38.6102C38.1542 732.256 36.5942 736.84 31.1702 739.408C31.6502 739.744 32.2502 740.392 32.4902 740.824C38.2742 737.896 39.9542 732.808 40.4582 726.808H45.9542V737.728C45.9542 739.912 46.5302 740.488 48.3782 740.488H51.2102C52.9862 740.488 53.4422 739.408 53.6102 736.072C53.1302 735.928 52.3622 735.64 51.9542 735.28C51.8822 738.16 51.7622 738.736 51.0902 738.736H48.6422Z" fill="white" fill-opacity="0.65"/>
<path d="M83.3394 727.84H73.5474V718.96H71.6514V727.84H61.9794V729.664H71.6514V740.824H73.5474V729.664H83.3394V727.84Z" fill="white" fill-opacity="0.65"/>
<path d="M5.52094 749.376V751.152H11.4249C11.4729 752.064 11.5689 753.12 11.7369 754.224L10.6809 754.056C9.21694 760.776 6.26494 765.6 0.960938 768.36C1.44094 768.672 2.23294 769.416 2.56894 769.776C7.34494 766.968 10.3689 762.6 12.1449 756.384C13.2249 760.92 15.7689 766.176 21.6729 769.752C21.9849 769.32 22.7049 768.552 23.1129 768.264C13.7049 762.672 13.1529 753.624 13.1529 749.376H5.52094Z" fill="white" fill-opacity="0.65"/>
<path d="M33.7382 751.368V753.264H50.8502V751.368H33.7382ZM31.7222 765.504V767.448H52.8662V765.504H31.7222Z" fill="white" fill-opacity="0.65"/>
<path d="M63.5874 750.24V752.016H81.5874V750.24H63.5874ZM65.1234 758.016V759.816H79.7154V758.016H65.1234ZM62.2194 766.296V768.096H82.8834V766.296H62.2194Z" fill="white" fill-opacity="0.65"/>
<path d="M12.1449 795.92V786.416H21.0729V784.64H12.1449V777.296H10.2729V795.92H1.32094V797.696H22.7049V795.92H12.1449Z" fill="white" fill-opacity="0.65"/>
<path d="M52.8902 780.464V778.688H31.6982V780.464H40.8662V798.8H42.7622V786.176C45.4982 787.64 48.7142 789.608 50.3462 790.952L51.5942 789.344C49.6982 787.904 45.9302 785.744 43.0742 784.376L42.7622 784.736V780.464H52.8902Z" fill="white" fill-opacity="0.65"/>
<path d="M83.0994 785.6V783.776H73.1874C73.5234 781.256 73.5474 778.88 73.5714 776.96H71.6514C71.6274 778.856 71.6514 781.256 71.2914 783.776H62.1474V785.6H71.0034C70.0194 790.136 67.6194 794.744 61.6674 797.336C62.1714 797.696 62.7474 798.32 63.0114 798.8C68.8434 796.136 71.4354 791.528 72.5874 786.92C74.4834 792.368 77.5314 796.616 82.1394 798.8C82.4514 798.272 83.0514 797.528 83.4834 797.12C78.8514 795.224 75.7314 790.88 74.0514 785.6H83.0994Z" fill="white" fill-opacity="0.65"/>
<path d="M17.0409 813.424C16.2969 816.808 15.1449 819.4 13.2729 821.368C11.1369 820.408 8.95294 819.544 6.93694 818.848C7.68094 817.192 8.47294 815.32 9.26494 813.424H17.0409ZM22.8009 813.424V811.624H10.0089C10.7769 809.752 11.4969 807.928 12.1209 806.272L10.2249 805.936C9.60094 807.664 8.83294 809.632 8.01694 811.624H1.29694V813.424H7.27294C6.09694 816.232 4.89694 818.944 3.93694 820.912L5.68894 821.56C5.85694 821.2 6.04894 820.792 6.24094 820.384C8.04094 821.056 9.93694 821.848 11.7849 822.688C9.38494 824.464 6.09694 825.568 1.48894 826.192C1.84894 826.624 2.23294 827.344 2.42494 827.872C7.51294 827.128 11.1129 825.784 13.7049 823.624C16.5849 825.064 19.1769 826.6 20.8809 827.944L22.2249 826.312C20.4969 825.016 17.9289 823.576 15.1209 822.232C17.0409 820.024 18.2409 817.144 19.0089 813.424H22.8009Z" fill="white" fill-opacity="0.65"/>
<path d="M52.7222 809.464V807.736H31.8422V809.464H38.2982C38.1542 815.584 37.8182 822.976 31.1702 826.504C31.6502 826.84 32.1782 827.416 32.4662 827.896C37.1942 825.256 38.9702 820.792 39.6662 816.088H48.6422C48.3062 822.424 47.8982 825.064 47.1782 825.712C46.8902 825.976 46.6022 826.024 46.0502 826.024C45.4022 826.024 43.6742 826.024 41.8742 825.832C42.2342 826.336 42.4742 827.056 42.4982 827.584C44.1542 827.704 45.8102 827.752 46.7222 827.68C47.6342 827.608 48.2102 827.416 48.7622 826.816C49.6982 825.808 50.0822 822.952 50.5142 815.224C50.5382 814.984 50.5382 814.36 50.5382 814.36H39.8822C40.0502 812.704 40.1222 811.048 40.1702 809.464H52.7222Z" fill="white" fill-opacity="0.65"/>
<path d="M73.4514 825.04V815.368H81.7314V813.616H73.4514V806.008H71.5794V813.616H63.4194V815.368H71.5794V825.04H61.9074V826.792H83.2674V825.04H73.4514Z" fill="white" fill-opacity="0.65"/>
<path d="M19.6569 840.576V852.792H12.8169V835.416H10.9929V852.792H4.39294V840.6H2.59294V856.536H4.39294V854.592H19.6569V856.44H21.4809V840.576H19.6569Z" fill="white" fill-opacity="0.65"/>
<path d="M52.9862 844.32H43.1462V838.32C45.9542 837.864 48.5462 837.336 50.6342 836.712L49.2662 835.248C45.4742 836.448 38.7062 837.384 32.8982 837.912C33.0902 838.32 33.3542 839.04 33.4022 839.496C35.9462 839.28 38.6582 838.992 41.2982 838.608V844.32H31.6262V846.072H41.2982V856.848H43.1462V846.072H52.9862V844.32Z" fill="white" fill-opacity="0.65"/>
<path d="M64.4514 836.232V844.32C64.4514 848.424 64.1394 852.552 61.3314 855.768C61.7634 856.032 62.4834 856.608 62.7954 857.016C65.8914 853.464 66.2514 848.904 66.2514 844.344V836.232H64.4514ZM72.0354 837.216V854.736H73.8354V837.216H72.0354ZM80.0514 836.16V856.8H81.8754V836.16H80.0514Z" fill="white" fill-opacity="0.65"/>
<path d="M22.8489 874.568H12.9609V872.216C15.6249 870.776 18.7689 868.544 20.8089 866.48L19.5129 865.496L19.0809 865.592H3.69694V867.32H17.2089C15.8169 868.52 13.9689 869.792 12.2649 870.728H11.1369V874.568H1.22494V876.344H11.1369V883.52C11.1369 883.952 10.9929 884.072 10.4649 884.096C9.96094 884.12 8.18494 884.12 6.26494 884.048C6.57694 884.552 6.88894 885.368 7.03294 885.872C9.31294 885.896 10.8729 885.848 11.7609 885.56C12.6489 885.272 12.9609 884.72 12.9609 883.52V876.344H22.8489V874.568Z" fill="white" fill-opacity="0.65"/>
<path d="M41.4422 864.272V883.352C41.4422 883.832 41.2502 884 40.7462 884C40.2902 884.024 38.5622 884.048 36.8102 883.976C37.0982 884.48 37.4342 885.32 37.5542 885.824C39.7862 885.848 41.2742 885.8 42.1382 885.512C42.9782 885.2 43.3382 884.672 43.3382 883.352V864.272H41.4422ZM47.1782 870.32C49.2182 873.752 51.1382 878.216 51.7142 881.048L53.5862 880.256C52.9862 877.4 50.9702 873.032 48.8582 869.672L47.1782 870.32ZM35.1782 869.84C34.6022 873.056 33.2822 877.184 31.1462 879.704C31.6262 879.896 32.3942 880.328 32.8262 880.64C34.9862 877.976 36.3782 873.68 37.1462 870.2L35.1782 869.84Z" fill="white" fill-opacity="0.65"/>
<path d="M65.5074 881.408V868.184H79.6194V881.408H65.5074ZM63.7074 866.408V885.248H65.5074V883.208H79.6194V885.128H81.5154V866.408H63.7074Z" fill="white" fill-opacity="0.65"/>
<path d="M22.7769 905.272H12.9369V901.384H21.4329V899.68H12.9369V895.792C15.7689 895.456 18.3849 895 20.4249 894.376L19.0809 892.96C15.4809 894.088 8.52094 894.712 2.85694 894.976C3.02494 895.384 3.24094 896.08 3.31294 896.56C5.78494 896.44 8.49694 896.272 11.1369 895.984V899.68H2.88094V901.384H11.1369V905.272H1.27294V907.024H11.1369V912.328C11.1369 912.832 10.9209 913 10.3929 913C9.84094 913.024 7.96894 913.048 5.95294 912.976C6.24094 913.456 6.57694 914.248 6.72094 914.752C9.24094 914.776 10.7769 914.728 11.6649 914.44C12.5529 914.152 12.9369 913.624 12.9369 912.352V907.024H22.7769V905.272Z" fill="white" fill-opacity="0.65"/>
<path d="M47.1302 904V911.776H39.0182C39.5222 909.616 40.0982 906.856 40.6502 904H47.1302ZM48.9302 911.776V902.248H41.0102C41.3462 900.448 41.6822 898.648 41.9702 896.992H51.1862V895.24H33.2342V896.992H40.0262C39.7622 898.648 39.4502 900.424 39.0902 902.248H34.1702V904H38.7542C38.2022 906.832 37.6022 909.592 37.0742 911.776H31.7222V913.504H52.9142V911.776H48.9302Z" fill="white" fill-opacity="0.65"/>
<path d="M66.6834 911.248V904.552H78.5874V911.248H66.6834ZM78.5874 896.32V902.8H66.6834V896.32H78.5874ZM64.8834 894.568V914.56H66.6834V913H78.5874V914.464H80.4594V894.568H64.8834Z" fill="white" fill-opacity="0.65"/>
<path d="M91.1529 235.68V237.624H112.945V235.68H91.1529Z" fill="white" fill-opacity="0.65"/>
<path d="M100.777 255.656C100.609 258.824 100.609 270.272 90.8889 275.24C91.4409 275.6 92.0169 276.176 92.3289 276.608C98.4009 273.32 100.873 267.536 101.929 262.736C103.081 267.536 105.721 273.68 111.913 276.608C112.177 276.128 112.729 275.528 113.233 275.144C104.209 271.016 102.913 259.928 102.697 256.76C102.721 256.352 102.721 255.968 102.745 255.656H100.777Z" fill="white" fill-opacity="0.65"/>
<path d="M102.073 303.232C100.369 303.232 100.033 302.896 100.033 301.432V293.824L112.801 291.808L112.513 290.008L100.033 292.024V284.344H98.1609V292.312L91.2729 293.416L91.5609 295.192L98.1609 294.136V301.408C98.1609 304.24 99.0489 304.984 102.001 304.984H108.265C111.193 304.984 111.769 303.64 112.081 299.704C111.577 299.56 110.737 299.2 110.281 298.864C110.041 302.416 109.801 303.232 108.217 303.232H102.073Z" fill="white" fill-opacity="0.65"/>
<path d="M96.9129 319.296C96.2649 324.36 94.7529 330.24 91.0329 333.6C91.4889 333.912 92.1609 334.536 92.4969 334.896C96.3849 331.272 98.0409 325.104 98.9529 319.584L96.9129 319.296ZM96.2889 314.784V316.656H104.569C105.337 324.432 107.017 331.224 111.241 334.824C111.673 334.392 112.441 333.744 112.969 333.408C108.577 330.048 106.945 322.92 106.225 314.784H96.2889Z" fill="white" fill-opacity="0.65"/>
<path d="M108.361 361.736C107.593 361.736 107.473 361.592 107.473 360.752V348.056H106.753V348.032H100.297C100.393 346.136 100.393 344.168 100.417 342.176H98.5209C98.5209 344.192 98.5209 346.16 98.4489 348.032H91.9929V349.808H98.3289C97.8729 355.256 96.3129 359.84 90.8889 362.408C91.3689 362.744 91.9689 363.392 92.2089 363.824C97.9929 360.896 99.6729 355.808 100.177 349.808H105.673V360.728C105.673 362.912 106.249 363.488 108.097 363.488H110.929C112.705 363.488 113.161 362.408 113.329 359.072C112.849 358.928 112.081 358.64 111.673 358.28C111.601 361.16 111.481 361.736 110.809 361.736H108.361Z" fill="white" fill-opacity="0.65"/>
<path d="M112.777 379.84H102.985V370.96H101.089V379.84H91.4169V381.664H101.089V392.824H102.985V381.664H112.777V379.84Z" fill="white" fill-opacity="0.65"/>
<path d="M95.5209 401.376V403.152H101.425C101.473 404.064 101.569 405.12 101.737 406.224L100.681 406.056C99.2169 412.776 96.2649 417.6 90.9609 420.36C91.4409 420.672 92.2329 421.416 92.5689 421.776C97.3449 418.968 100.369 414.6 102.145 408.384C103.225 412.92 105.769 418.176 111.673 421.752C111.985 421.32 112.705 420.552 113.113 420.264C103.705 414.672 103.153 405.624 103.153 401.376H95.5209Z" fill="white" fill-opacity="0.65"/>
<path d="M93.4569 432.368V434.264H110.569V432.368H93.4569ZM91.4409 446.504V448.448H112.585V446.504H91.4409Z" fill="white" fill-opacity="0.65"/>
<path d="M93.0249 460.24V462.016H111.025V460.24H93.0249ZM94.5609 468.016V469.816H109.153V468.016H94.5609ZM91.6569 476.296V478.096H112.321V476.296H91.6569Z" fill="white" fill-opacity="0.65"/>
<path d="M102.145 505.92V496.416H111.073V494.64H102.145V487.296H100.273V505.92H91.3209V507.696H112.705V505.92H102.145Z" fill="white" fill-opacity="0.65"/>
<path d="M112.609 519.464V517.688H91.4169V519.464H100.585V537.8H102.481V525.176C105.217 526.64 108.433 528.608 110.065 529.952L111.313 528.344C109.417 526.904 105.649 524.744 102.793 523.376L102.481 523.736V519.464H112.609Z" fill="white" fill-opacity="0.65"/>
<path d="M112.537 553.6V551.776H102.625C102.961 549.256 102.985 546.88 103.009 544.96H101.089C101.065 546.856 101.089 549.256 100.729 551.776H91.5849V553.6H100.441C99.4569 558.136 97.0569 562.744 91.1049 565.336C91.6089 565.696 92.1849 566.32 92.4489 566.8C98.2809 564.136 100.873 559.528 102.025 554.92C103.921 560.368 106.969 564.616 111.577 566.8C111.889 566.272 112.489 565.528 112.921 565.12C108.289 563.224 105.169 558.88 103.489 553.6H112.537Z" fill="white" fill-opacity="0.65"/>
<path d="M107.041 581.424C106.297 584.808 105.145 587.4 103.273 589.368C101.137 588.408 98.9529 587.544 96.9369 586.848C97.6809 585.192 98.4729 583.32 99.2649 581.424H107.041ZM112.801 581.424V579.624H100.009C100.777 577.752 101.497 575.928 102.121 574.272L100.225 573.936C99.6009 575.664 98.8329 577.632 98.0169 579.624H91.2969V581.424H97.2729C96.0969 584.232 94.8969 586.944 93.9369 588.912L95.6889 589.56C95.8569 589.2 96.0489 588.792 96.2409 588.384C98.0409 589.056 99.9369 589.848 101.785 590.688C99.3849 592.464 96.0969 593.568 91.4889 594.192C91.8489 594.624 92.2329 595.344 92.4249 595.872C97.5129 595.128 101.113 593.784 103.705 591.624C106.585 593.064 109.177 594.6 110.881 595.944L112.225 594.312C110.497 593.016 107.929 591.576 105.121 590.232C107.041 588.024 108.241 585.144 109.009 581.424H112.801Z" fill="white" fill-opacity="0.65"/>
<path d="M112.441 606.464V604.736H91.5609V606.464H98.0169C97.8729 612.584 97.5369 619.976 90.8889 623.504C91.3689 623.84 91.8969 624.416 92.1849 624.896C96.9129 622.256 98.6889 617.792 99.3849 613.088H108.361C108.025 619.424 107.617 622.064 106.897 622.712C106.609 622.976 106.321 623.024 105.769 623.024C105.121 623.024 103.393 623.024 101.593 622.832C101.953 623.336 102.193 624.056 102.217 624.584C103.873 624.704 105.529 624.752 106.441 624.68C107.353 624.608 107.929 624.416 108.481 623.816C109.417 622.808 109.801 619.952 110.233 612.224C110.257 611.984 110.257 611.36 110.257 611.36H99.6009C99.7689 609.704 99.8409 608.048 99.8889 606.464H112.441Z" fill="white" fill-opacity="0.65"/>
<path d="M102.889 651.04V641.368H111.169V639.616H102.889V632.008H101.017V639.616H92.8569V641.368H101.017V651.04H91.3449V652.792H112.705V651.04H102.889Z" fill="white" fill-opacity="0.65"/>
<path d="M109.657 666.576V678.792H102.817V661.416H100.993V678.792H94.3929V666.6H92.5929V682.536H94.3929V680.592H109.657V682.44H111.481V666.576H109.657Z" fill="white" fill-opacity="0.65"/>
<path d="M112.705 699.32H102.865V693.32C105.673 692.864 108.265 692.336 110.353 691.712L108.985 690.248C105.193 691.448 98.4249 692.384 92.6169 692.912C92.8089 693.32 93.0729 694.04 93.1209 694.496C95.6649 694.28 98.3769 693.992 101.017 693.608V699.32H91.3449V701.072H101.017V711.848H102.865V701.072H112.705V699.32Z" fill="white" fill-opacity="0.65"/>
<path d="M93.8889 720.232V728.32C93.8889 732.424 93.5769 736.552 90.7689 739.768C91.2009 740.032 91.9209 740.608 92.2329 741.016C95.3289 737.464 95.6889 732.904 95.6889 728.344V720.232H93.8889ZM101.473 721.216V738.736H103.273V721.216H101.473ZM109.489 720.16V740.8H111.313V720.16H109.489Z" fill="white" fill-opacity="0.65"/>
<path d="M112.849 758.568H102.961V756.216C105.625 754.776 108.769 752.544 110.809 750.48L109.513 749.496L109.081 749.592H93.6969V751.32H107.209C105.817 752.52 103.969 753.792 102.265 754.728H101.137V758.568H91.2249V760.344H101.137V767.52C101.137 767.952 100.993 768.072 100.465 768.096C99.9609 768.12 98.1849 768.12 96.2649 768.048C96.5769 768.552 96.8889 769.368 97.0329 769.872C99.3129 769.896 100.873 769.848 101.761 769.56C102.649 769.272 102.961 768.72 102.961 767.52V760.344H112.849V758.568Z" fill="white" fill-opacity="0.65"/>
<path d="M101.161 777.272V796.352C101.161 796.832 100.969 797 100.465 797C100.009 797.024 98.2809 797.048 96.5289 796.976C96.8169 797.48 97.1529 798.32 97.2729 798.824C99.5049 798.848 100.993 798.8 101.857 798.512C102.697 798.2 103.057 797.672 103.057 796.352V777.272H101.161ZM106.897 783.32C108.937 786.752 110.857 791.216 111.433 794.048L113.305 793.256C112.705 790.4 110.689 786.032 108.577 782.672L106.897 783.32ZM94.8969 782.84C94.3209 786.056 93.0009 790.184 90.8649 792.704C91.3449 792.896 92.1129 793.328 92.5449 793.64C94.7049 790.976 96.0969 786.68 96.8649 783.2L94.8969 782.84Z" fill="white" fill-opacity="0.65"/>
<path d="M94.9449 823.408V810.184H109.057V823.408H94.9449ZM93.1449 808.408V827.248H94.9449V825.208H109.057V827.128H110.953V808.408H93.1449Z" fill="white" fill-opacity="0.65"/>
<path d="M112.777 847.272H102.937V843.384H111.433V841.68H102.937V837.792C105.769 837.456 108.385 837 110.425 836.376L109.081 834.96C105.481 836.088 98.5209 836.712 92.8569 836.976C93.0249 837.384 93.2409 838.08 93.3129 838.56C95.7849 838.44 98.4969 838.272 101.137 837.984V841.68H92.8809V843.384H101.137V847.272H91.2729V849.024H101.137V854.328C101.137 854.832 100.921 855 100.393 855C99.8409 855.024 97.9689 855.048 95.9529 854.976C96.2409 855.456 96.5769 856.248 96.7209 856.752C99.2409 856.776 100.777 856.728 101.665 856.44C102.553 856.152 102.937 855.624 102.937 854.352V849.024H112.777V847.272Z" fill="white" fill-opacity="0.65"/>
<path d="M106.849 875V882.776H98.7369C99.2409 880.616 99.8169 877.856 100.369 875H106.849ZM108.649 882.776V873.248H100.729C101.065 871.448 101.401 869.648 101.689 867.992H110.905V866.24H92.9529V867.992H99.7449C99.4809 869.648 99.1689 871.424 98.8089 873.248H93.8889V875H98.4729C97.9209 877.832 97.3209 880.592 96.7929 882.776H91.4409V884.504H112.633V882.776H108.649Z" fill="white" fill-opacity="0.65"/>
<path d="M96.1209 911.248V904.552H108.025V911.248H96.1209ZM108.025 896.32V902.8H96.1209V896.32H108.025ZM94.3209 894.568V914.56H96.1209V913H108.025V914.464H109.897V894.568H94.3209Z" fill="white" fill-opacity="0.65"/>
</svg>
