<svg width="69" height="506" viewBox="0 0 69 506" fill="none" xmlns="http://www.w3.org/2000/svg">
<path d="M39.2564 3.83979L28.7444 0.383789C28.0964 2.83179 26.5844 6.14379 25.5044 7.94379C21.9044 14.1358 15.6404 23.4238 3.04042 31.1278L11.1044 37.1038C18.1604 32.2798 24.4244 25.9438 29.2484 19.6798H49.4804C48.3284 25.0798 44.1524 33.7198 39.2564 39.3358C32.9924 46.4638 25.0004 52.7278 10.2404 57.1198L18.7364 64.7518C32.2724 59.4238 40.9844 52.7998 47.8244 44.4478C54.3044 36.3838 58.4084 26.8078 60.3524 20.3998C60.9284 18.5998 61.9364 16.5838 62.7284 15.2158L55.3844 10.6798C53.7284 11.1838 51.3524 11.5438 49.1204 11.5438H34.6484C34.7204 11.3998 34.7924 11.3278 34.8644 11.1838C35.7284 9.59979 37.6004 6.35979 39.2564 3.83979Z" fill="#FF1500"/>
<path d="M50.5604 92.7038L44.5124 95.2238C47.1044 98.8958 48.7604 101.992 50.8484 106.528L57.1124 103.864C55.4564 100.552 52.5764 95.7278 50.5604 92.7038ZM60.4244 89.2478L54.3044 91.7678C56.9684 95.3678 58.7684 98.1758 61.0724 102.712L67.1924 99.9758C65.4644 96.8078 62.6564 92.1278 60.4244 89.2478ZM19.2404 91.3358L14.0564 99.2558C18.8084 101.92 26.2964 106.744 30.3284 109.552L35.6564 101.632C31.9124 98.9678 23.9924 93.9278 19.2404 91.3358ZM5.92042 142.456L11.3204 151.888C17.6564 150.736 28.0244 147.136 35.3684 143.032C47.1044 136.192 57.3284 127.12 63.9524 117.112L58.4084 107.32C52.7204 117.616 42.6404 127.48 30.4004 134.32C22.6244 138.64 13.9844 141.088 5.92042 142.456ZM8.15242 107.752L2.96842 115.672C7.79242 118.264 15.2804 123.088 19.3844 125.968L24.6404 117.904C20.9684 115.312 13.0484 110.344 8.15242 107.752Z" fill="#FF1500"/>
<path d="M14.0564 180.776V190.064C16.1444 189.92 19.2404 189.848 21.5444 189.848H49.1204C51.7124 189.848 55.0964 189.92 57.0404 190.064V180.776C55.0244 181.064 51.4964 181.136 49.2644 181.136H21.5444C19.0964 181.136 16.0724 181.064 14.0564 180.776ZM63.0884 201.656L56.6804 197.696C55.6724 198.128 53.7284 198.416 51.4244 198.416H15.7844C13.5524 198.416 10.4564 198.2 7.43242 197.984V207.344C10.4564 207.056 14.0564 206.984 15.7844 206.984H50.5604C49.2644 211.016 47.0324 215.48 43.1444 219.44C37.6724 225.056 29.0324 229.808 18.2324 232.04L25.3604 240.176C34.5764 237.584 43.7924 232.688 51.0644 224.624C56.4644 218.648 59.5604 211.664 61.7204 204.68C62.0084 203.888 62.5844 202.592 63.0884 201.656Z" fill="#FF1500"/>
<path d="M64.7444 298.656C64.7444 282.96 53.5124 270.576 35.6564 270.576C17.0084 270.576 2.60842 284.76 2.60842 301.392C2.60842 313.56 9.23242 322.344 17.2244 322.344C25.0724 322.344 31.2644 313.416 35.5844 298.872C37.6724 292.104 38.8964 285.48 39.9044 279.36C49.6244 281.016 55.0244 288.432 55.0244 298.368C55.0244 308.88 47.8244 315.504 38.6084 317.664C36.6644 318.096 34.6484 318.528 31.9124 318.816L37.3124 327.384C55.4564 324.576 64.7444 313.848 64.7444 298.656ZM11.8244 300.456C11.8244 292.536 18.2324 282.024 30.1124 279.576C29.3204 285.552 27.9524 291.672 26.2964 297C23.3444 306.72 20.5364 311.256 17.5124 311.256C14.7044 311.256 11.8244 307.728 11.8244 300.456Z" fill="#FF1500"/>
<path d="M54.0164 364.696H31.4084V360.664H54.0164V364.696ZM54.0164 375.064H31.4084V371.032H54.0164V375.064ZM62.4404 353.824H23.3444V381.832H62.4404V353.824ZM21.1844 358.216C18.4484 355.84 12.9044 352.96 8.72842 351.232L3.90442 357.712C8.22442 359.584 13.6244 362.824 16.2164 365.272L21.1844 358.216ZM17.2964 377.152C14.5604 374.848 9.08842 372.112 4.84042 370.6L0.232422 377.008C4.48042 378.88 9.80842 381.904 12.3284 384.28L17.2964 377.152ZM13.5524 389.32C9.95242 397.744 5.27242 406.816 1.96042 412.36L9.66442 417.4C13.3364 410.416 17.1524 402.136 20.3204 394.432L13.5524 389.32ZM31.9124 399.04H42.3524V391.552H31.9124V384.136H23.7044V408.112C21.3284 408.472 19.1684 408.76 17.2244 408.976L19.1684 416.824C25.7924 415.744 34.5044 414.448 42.5684 413.008L42.1364 405.448C38.7524 405.952 35.2244 406.456 31.9124 406.96V399.04ZM54.3044 409.696C52.6484 409.696 52.3604 409.408 52.3604 407.032V401.056C57.2564 399.256 62.5844 396.952 67.0484 394.36L61.1444 387.952C58.9124 389.752 55.7444 391.696 52.3604 393.424V384.136H44.1524V407.104C44.1524 414.808 45.7364 417.112 52.8644 417.112H59.7044C65.3204 417.112 67.4084 414.52 68.2004 405.232C66.0404 404.728 62.5844 403.432 60.9284 402.064C60.7124 408.544 60.4244 409.696 58.9124 409.696H54.3044Z" fill="#FF1500"/>
<path d="M22.0484 446.432C19.1684 444.056 13.4084 441.032 9.01642 439.376L4.33642 445.712C8.87242 447.656 14.4884 450.968 17.0804 453.488L22.0484 446.432ZM18.0884 465.584C15.2084 463.136 9.23242 460.328 4.76842 458.744L0.232422 465.152C4.76842 467.096 10.4564 470.264 13.1924 472.712L18.0884 465.584ZM9.73642 505.256C13.7684 498.2 18.0164 489.92 21.6164 482.288L15.1364 476.96C11.0324 485.384 5.84842 494.456 2.24842 499.928L9.73642 505.256ZM50.9204 497.912C49.8404 497.912 49.0484 497.768 48.4004 497.552C47.6804 497.12 47.4644 496.184 47.4644 494.528V487.616H55.0244V489.992H60.2804C60.2084 493.016 59.9204 495.248 59.6324 496.184C59.3444 497.12 58.7684 497.552 58.1924 497.696C57.5444 497.84 56.6084 497.912 55.6724 497.912H50.9204ZM63.2324 489.992V460.472H55.0244V479.696H47.4644V453.776C54.0164 452.552 60.2084 451.04 65.5364 449.24L59.4884 442.256C56.1044 443.552 52.0004 444.704 47.4644 445.712V439.376H38.8964V447.44C32.7044 448.52 26.0804 449.384 19.8164 450.032C20.8244 451.976 21.9764 455.144 22.3364 457.232C27.6644 456.728 33.2804 456.08 38.8964 455.216V479.696H31.9844V460.472H23.9204V492.008H31.9844V487.616H38.8964V494.528C38.8964 500.936 39.9764 502.664 41.9924 504.032C43.7924 505.256 46.5284 505.832 48.9764 505.832H56.3204C58.2644 505.832 60.7124 505.544 62.2964 505.04C64.3124 504.464 65.6084 503.456 66.3284 501.872C67.1204 500.288 67.7684 496.904 67.9844 493.952C65.3924 493.088 62.2964 491.72 60.3524 489.992H63.2324Z" fill="#FF1500"/>
</svg>
