<svg width="57" height="912" viewBox="0 0 57 912" fill="none" xmlns="http://www.w3.org/2000/svg">
<path d="M1.15158 0.680176V2.62418H22.9436V0.680176H1.15158Z" fill="white" fill-opacity="0.65"/>
<path d="M10.7756 20.6562C10.6076 23.8242 10.6076 35.2722 0.887578 40.2402C1.43958 40.6002 2.01558 41.1762 2.32758 41.6082C8.39958 38.3202 10.8716 32.5362 11.9276 27.7362C13.0796 32.5362 15.7196 38.6802 21.9116 41.6082C22.1756 41.1282 22.7276 40.5282 23.2316 40.1442C14.2076 36.0162 12.9116 24.9282 12.6956 21.7602C12.7196 21.3522 12.7196 20.9682 12.7436 20.6562H10.7756Z" fill="white" fill-opacity="0.65"/>
<path d="M12.0716 68.2322C10.3676 68.2322 10.0316 67.8962 10.0316 66.4322V58.8242L22.7996 56.8082L22.5116 55.0082L10.0316 57.0242V49.3442H8.15958V57.3122L1.27158 58.4162L1.55958 60.1922L8.15958 59.1362V66.4082C8.15958 69.2402 9.04758 69.9842 11.9996 69.9842H18.2636C21.1916 69.9842 21.7676 68.6402 22.0796 64.7042C21.5756 64.5602 20.7356 64.2002 20.2796 63.8642C20.0396 67.4162 19.7996 68.2322 18.2156 68.2322H12.0716Z" fill="white" fill-opacity="0.65"/>
<path d="M6.91158 84.2962C6.26358 89.3602 4.75158 95.2402 1.03158 98.6002C1.48758 98.9122 2.15958 99.5362 2.49558 99.8962C6.38358 96.2722 8.03958 90.1042 8.95158 84.5842L6.91158 84.2962ZM6.28758 79.7842V81.6562H14.5676C15.3356 89.4322 17.0156 96.2242 21.2396 99.8242C21.6716 99.3922 22.4396 98.7442 22.9676 98.4082C18.5756 95.0482 16.9436 87.9202 16.2236 79.7842H6.28758Z" fill="white" fill-opacity="0.65"/>
<path d="M18.3596 126.736C17.5916 126.736 17.4716 126.592 17.4716 125.752V113.056H16.7516V113.032H10.2956C10.3916 111.136 10.3916 109.168 10.4156 107.176H8.51958C8.51958 109.192 8.51958 111.16 8.44758 113.032H1.99158V114.808H8.32758C7.87158 120.256 6.31158 124.84 0.887578 127.408C1.36758 127.744 1.96758 128.392 2.20758 128.824C7.99158 125.896 9.67158 120.808 10.1756 114.808H15.6716V125.728C15.6716 127.912 16.2476 128.488 18.0956 128.488H20.9276C22.7036 128.488 23.1596 127.408 23.3276 124.072C22.8476 123.928 22.0796 123.64 21.6716 123.28C21.5996 126.16 21.4796 126.736 20.8076 126.736H18.3596Z" fill="white" fill-opacity="0.65"/>
<path d="M22.7756 144.84H12.9836V135.96H11.0876V144.84H1.41558V146.664H11.0876V157.824H12.9836V146.664H22.7756V144.84Z" fill="white" fill-opacity="0.65"/>
<path d="M5.51958 166.376V168.152H11.4236C11.4716 169.064 11.5676 170.12 11.7356 171.224L10.6796 171.056C9.21558 177.776 6.26358 182.6 0.959578 185.36C1.43958 185.672 2.23158 186.416 2.56758 186.776C7.34358 183.968 10.3676 179.6 12.1436 173.384C13.2236 177.92 15.7676 183.176 21.6716 186.752C21.9836 186.32 22.7036 185.552 23.1116 185.264C13.7036 179.672 13.1516 170.624 13.1516 166.376H5.51958Z" fill="white" fill-opacity="0.65"/>
<path d="M3.45558 197.368V199.264H20.5676V197.368H3.45558ZM1.43958 211.504V213.448H22.5836V211.504H1.43958Z" fill="white" fill-opacity="0.65"/>
<path d="M3.02358 225.24V227.016H21.0236V225.24H3.02358ZM4.55958 233.016V234.816H19.1516V233.016H4.55958ZM1.65558 241.296V243.096H22.3196V241.296H1.65558Z" fill="white" fill-opacity="0.65"/>
<path d="M12.1436 270.92V261.416H21.0716V259.64H12.1436V252.296H10.2716V270.92H1.31958V272.696H22.7036V270.92H12.1436Z" fill="white" fill-opacity="0.65"/>
<path d="M22.6076 284.464V282.688H1.41558V284.464H10.5836V302.8H12.4796V290.176C15.2156 291.64 18.4316 293.608 20.0636 294.952L21.3116 293.344C19.4156 291.904 15.6476 289.744 12.7916 288.376L12.4796 288.736V284.464H22.6076Z" fill="white" fill-opacity="0.65"/>
<path d="M22.5356 318.6V316.776H12.6236C12.9596 314.256 12.9836 311.88 13.0076 309.96H11.0876C11.0636 311.856 11.0876 314.256 10.7276 316.776H1.58358V318.6H10.4396C9.45558 323.136 7.05558 327.744 1.10358 330.336C1.60758 330.696 2.18358 331.32 2.44758 331.8C8.27958 329.136 10.8716 324.528 12.0236 319.92C13.9196 325.368 16.9676 329.616 21.5756 331.8C21.8876 331.272 22.4876 330.528 22.9196 330.12C18.2876 328.224 15.1676 323.88 13.4876 318.6H22.5356Z" fill="white" fill-opacity="0.65"/>
<path d="M17.0396 346.424C16.2956 349.808 15.1436 352.4 13.2716 354.368C11.1356 353.408 8.95158 352.544 6.93558 351.848C7.67958 350.192 8.47158 348.32 9.26358 346.424H17.0396ZM22.7996 346.424V344.624H10.0076C10.7756 342.752 11.4956 340.928 12.1196 339.272L10.2236 338.936C9.59958 340.664 8.83158 342.632 8.01558 344.624H1.29558V346.424H7.27158C6.09558 349.232 4.89558 351.944 3.93558 353.912L5.68758 354.56C5.85558 354.2 6.04758 353.792 6.23958 353.384C8.03958 354.056 9.93558 354.848 11.7836 355.688C9.38358 357.464 6.09558 358.568 1.48758 359.192C1.84758 359.624 2.23158 360.344 2.42358 360.872C7.51158 360.128 11.1116 358.784 13.7036 356.624C16.5836 358.064 19.1756 359.6 20.8796 360.944L22.2236 359.312C20.4956 358.016 17.9276 356.576 15.1196 355.232C17.0396 353.024 18.2396 350.144 19.0076 346.424H22.7996Z" fill="white" fill-opacity="0.65"/>
<path d="M22.4396 371.464V369.736H1.55958V371.464H8.01558C7.87158 377.584 7.53558 384.976 0.887578 388.504C1.36758 388.84 1.89558 389.416 2.18358 389.896C6.91158 387.256 8.68758 382.792 9.38358 378.088H18.3596C18.0236 384.424 17.6156 387.064 16.8956 387.712C16.6076 387.976 16.3196 388.024 15.7676 388.024C15.1196 388.024 13.3916 388.024 11.5916 387.832C11.9516 388.336 12.1916 389.056 12.2156 389.584C13.8716 389.704 15.5276 389.752 16.4396 389.68C17.3516 389.608 17.9276 389.416 18.4796 388.816C19.4156 387.808 19.7996 384.952 20.2316 377.224C20.2556 376.984 20.2556 376.36 20.2556 376.36H9.59958C9.76758 374.704 9.83958 373.048 9.88758 371.464H22.4396Z" fill="white" fill-opacity="0.65"/>
<path d="M12.8876 416.04V406.368H21.1676V404.616H12.8876V397.008H11.0156V404.616H2.85558V406.368H11.0156V416.04H1.34358V417.792H22.7036V416.04H12.8876Z" fill="white" fill-opacity="0.65"/>
<path d="M19.6556 431.576V443.792H12.8156V426.416H10.9916V443.792H4.39158V431.6H2.59158V447.536H4.39158V445.592H19.6556V447.44H21.4796V431.576H19.6556Z" fill="white" fill-opacity="0.65"/>
<path d="M22.7036 464.32H12.8636V458.32C15.6716 457.864 18.2636 457.336 20.3516 456.712L18.9836 455.248C15.1916 456.448 8.42358 457.384 2.61558 457.912C2.80758 458.32 3.07158 459.04 3.11958 459.496C5.66358 459.28 8.37558 458.992 11.0156 458.608V464.32H1.34358V466.072H11.0156V476.848H12.8636V466.072H22.7036V464.32Z" fill="white" fill-opacity="0.65"/>
<path d="M3.88758 485.232V493.32C3.88758 497.424 3.57558 501.552 0.767578 504.768C1.19958 505.032 1.91958 505.608 2.23158 506.016C5.32758 502.464 5.68758 497.904 5.68758 493.344V485.232H3.88758ZM11.4716 486.216V503.736H13.2716V486.216H11.4716ZM19.4876 485.16V505.8H21.3116V485.16H19.4876Z" fill="white" fill-opacity="0.65"/>
<path d="M22.8476 523.568H12.9596V521.216C15.6236 519.776 18.7676 517.544 20.8076 515.48L19.5116 514.496L19.0796 514.592H3.69558V516.32H17.2076C15.8156 517.52 13.9676 518.792 12.2636 519.728H11.1356V523.568H1.22358V525.344H11.1356V532.52C11.1356 532.952 10.9916 533.072 10.4636 533.096C9.95958 533.12 8.18358 533.12 6.26358 533.048C6.57558 533.552 6.88758 534.368 7.03158 534.872C9.31158 534.896 10.8716 534.848 11.7596 534.56C12.6476 534.272 12.9596 533.72 12.9596 532.52V525.344H22.8476V523.568Z" fill="white" fill-opacity="0.65"/>
<path d="M11.1596 542.272V561.352C11.1596 561.832 10.9676 562 10.4636 562C10.0076 562.024 8.27958 562.048 6.52758 561.976C6.81558 562.48 7.15158 563.32 7.27158 563.824C9.50358 563.848 10.9916 563.8 11.8556 563.512C12.6956 563.2 13.0556 562.672 13.0556 561.352V542.272H11.1596ZM16.8956 548.32C18.9356 551.752 20.8556 556.216 21.4316 559.048L23.3036 558.256C22.7036 555.4 20.6876 551.032 18.5756 547.672L16.8956 548.32ZM4.89558 547.84C4.31958 551.056 2.99958 555.184 0.863578 557.704C1.34358 557.896 2.11158 558.328 2.54358 558.64C4.70358 555.976 6.09558 551.68 6.86358 548.2L4.89558 547.84Z" fill="white" fill-opacity="0.65"/>
<path d="M4.94358 588.408V575.184H19.0556V588.408H4.94358ZM3.14358 573.408V592.248H4.94358V590.208H19.0556V592.128H20.9516V573.408H3.14358Z" fill="white" fill-opacity="0.65"/>
<path d="M22.7756 612.272H12.9356V608.384H21.4316V606.68H12.9356V602.792C15.7676 602.456 18.3836 602 20.4236 601.376L19.0796 599.96C15.4796 601.088 8.51958 601.712 2.85558 601.976C3.02358 602.384 3.23958 603.08 3.31158 603.56C5.78358 603.44 8.49558 603.272 11.1356 602.984V606.68H2.87958V608.384H11.1356V612.272H1.27158V614.024H11.1356V619.328C11.1356 619.832 10.9196 620 10.3916 620C9.83958 620.024 7.96758 620.048 5.95158 619.976C6.23958 620.456 6.57558 621.248 6.71958 621.752C9.23958 621.776 10.7756 621.728 11.6636 621.44C12.5516 621.152 12.9356 620.624 12.9356 619.352V614.024H22.7756V612.272Z" fill="white" fill-opacity="0.65"/>
<path d="M16.8476 640V647.776H8.73558C9.23958 645.616 9.81558 642.856 10.3676 640H16.8476ZM18.6476 647.776V638.248H10.7276C11.0636 636.448 11.3996 634.648 11.6876 632.992H20.9036V631.24H2.95158V632.992H9.74358C9.47958 634.648 9.16758 636.424 8.80758 638.248H3.88758V640H8.47158C7.91958 642.832 7.31958 645.592 6.79158 647.776H1.43958V649.504H22.6316V647.776H18.6476Z" fill="white" fill-opacity="0.65"/>
<path d="M6.11958 676.248V669.552H18.0236V676.248H6.11958ZM18.0236 661.32V667.8H6.11958V661.32H18.0236ZM4.31958 659.568V679.56H6.11958V678H18.0236V679.464H19.8956V659.568H4.31958Z" fill="white" fill-opacity="0.65"/>
<path d="M34.1516 232.68V234.624H55.9436V232.68H34.1516Z" fill="white" fill-opacity="0.65"/>
<path d="M43.7756 252.656C43.6076 255.824 43.6076 267.272 33.8876 272.24C34.4396 272.6 35.0156 273.176 35.3276 273.608C41.3996 270.32 43.8716 264.536 44.9276 259.736C46.0796 264.536 48.7196 270.68 54.9116 273.608C55.1756 273.128 55.7276 272.528 56.2316 272.144C47.2076 268.016 45.9116 256.928 45.6956 253.76C45.7196 253.352 45.7196 252.968 45.7436 252.656H43.7756Z" fill="white" fill-opacity="0.65"/>
<path d="M45.0716 300.232C43.3676 300.232 43.0316 299.896 43.0316 298.432V290.824L55.7996 288.808L55.5116 287.008L43.0316 289.024V281.344H41.1596V289.312L34.2716 290.416L34.5596 292.192L41.1596 291.136V298.408C41.1596 301.24 42.0476 301.984 44.9996 301.984H51.2636C54.1916 301.984 54.7676 300.64 55.0796 296.704C54.5756 296.56 53.7356 296.2 53.2796 295.864C53.0396 299.416 52.7996 300.232 51.2156 300.232H45.0716Z" fill="white" fill-opacity="0.65"/>
<path d="M39.9116 316.296C39.2636 321.36 37.7516 327.24 34.0316 330.6C34.4876 330.912 35.1596 331.536 35.4956 331.896C39.3836 328.272 41.0396 322.104 41.9516 316.584L39.9116 316.296ZM39.2876 311.784V313.656H47.5676C48.3356 321.432 50.0156 328.224 54.2396 331.824C54.6716 331.392 55.4396 330.744 55.9676 330.408C51.5756 327.048 49.9436 319.92 49.2236 311.784H39.2876Z" fill="white" fill-opacity="0.65"/>
<path d="M51.3596 358.736C50.5916 358.736 50.4716 358.592 50.4716 357.752V345.056H49.7516V345.032H43.2956C43.3916 343.136 43.3916 341.168 43.4156 339.176H41.5196C41.5196 341.192 41.5196 343.16 41.4476 345.032H34.9916V346.808H41.3276C40.8716 352.256 39.3116 356.84 33.8876 359.408C34.3676 359.744 34.9676 360.392 35.2076 360.824C40.9916 357.896 42.6716 352.808 43.1756 346.808H48.6716V357.728C48.6716 359.912 49.2476 360.488 51.0956 360.488H53.9276C55.7036 360.488 56.1596 359.408 56.3276 356.072C55.8476 355.928 55.0796 355.64 54.6716 355.28C54.5996 358.16 54.4796 358.736 53.8076 358.736H51.3596Z" fill="white" fill-opacity="0.65"/>
<path d="M55.7756 376.84H45.9836V367.96H44.0876V376.84H34.4156V378.664H44.0876V389.824H45.9836V378.664H55.7756V376.84Z" fill="white" fill-opacity="0.65"/>
<path d="M38.5196 398.376V400.152H44.4236C44.4716 401.064 44.5676 402.12 44.7356 403.224L43.6796 403.056C42.2156 409.776 39.2636 414.6 33.9596 417.36C34.4396 417.672 35.2316 418.416 35.5676 418.776C40.3436 415.968 43.3676 411.6 45.1436 405.384C46.2236 409.92 48.7676 415.176 54.6716 418.752C54.9836 418.32 55.7036 417.552 56.1116 417.264C46.7036 411.672 46.1516 402.624 46.1516 398.376H38.5196Z" fill="white" fill-opacity="0.65"/>
<path d="M36.4556 429.368V431.264H53.5676V429.368H36.4556ZM34.4396 443.504V445.448H55.5836V443.504H34.4396Z" fill="white" fill-opacity="0.65"/>
<path d="M36.0236 457.24V459.016H54.0236V457.24H36.0236ZM37.5596 465.016V466.816H52.1516V465.016H37.5596ZM34.6556 473.296V475.096H55.3196V473.296H34.6556Z" fill="white" fill-opacity="0.65"/>
<path d="M45.1436 502.92V493.416H54.0716V491.64H45.1436V484.296H43.2716V502.92H34.3196V504.696H55.7036V502.92H45.1436Z" fill="white" fill-opacity="0.65"/>
<path d="M55.6076 516.464V514.688H34.4156V516.464H43.5836V534.8H45.4796V522.176C48.2156 523.64 51.4316 525.608 53.0636 526.952L54.3116 525.344C52.4156 523.904 48.6476 521.744 45.7916 520.376L45.4796 520.736V516.464H55.6076Z" fill="white" fill-opacity="0.65"/>
<path d="M55.5356 550.6V548.776H45.6236C45.9596 546.256 45.9836 543.88 46.0076 541.96H44.0876C44.0636 543.856 44.0876 546.256 43.7276 548.776H34.5836V550.6H43.4396C42.4556 555.136 40.0556 559.744 34.1036 562.336C34.6076 562.696 35.1836 563.32 35.4476 563.8C41.2796 561.136 43.8716 556.528 45.0236 551.92C46.9196 557.368 49.9676 561.616 54.5756 563.8C54.8876 563.272 55.4876 562.528 55.9196 562.12C51.2876 560.224 48.1676 555.88 46.4876 550.6H55.5356Z" fill="white" fill-opacity="0.65"/>
<path d="M50.0396 578.424C49.2956 581.808 48.1436 584.4 46.2716 586.368C44.1356 585.408 41.9516 584.544 39.9356 583.848C40.6796 582.192 41.4716 580.32 42.2636 578.424H50.0396ZM55.7996 578.424V576.624H43.0076C43.7756 574.752 44.4956 572.928 45.1196 571.272L43.2236 570.936C42.5996 572.664 41.8316 574.632 41.0156 576.624H34.2956V578.424H40.2716C39.0956 581.232 37.8956 583.944 36.9356 585.912L38.6876 586.56C38.8556 586.2 39.0476 585.792 39.2396 585.384C41.0396 586.056 42.9356 586.848 44.7836 587.688C42.3836 589.464 39.0956 590.568 34.4876 591.192C34.8476 591.624 35.2316 592.344 35.4236 592.872C40.5116 592.128 44.1116 590.784 46.7036 588.624C49.5836 590.064 52.1756 591.6 53.8796 592.944L55.2236 591.312C53.4956 590.016 50.9276 588.576 48.1196 587.232C50.0396 585.024 51.2396 582.144 52.0076 578.424H55.7996Z" fill="white" fill-opacity="0.65"/>
<path d="M55.4396 603.464V601.736H34.5596V603.464H41.0156C40.8716 609.584 40.5356 616.976 33.8876 620.504C34.3676 620.84 34.8956 621.416 35.1836 621.896C39.9116 619.256 41.6876 614.792 42.3836 610.088H51.3596C51.0236 616.424 50.6156 619.064 49.8956 619.712C49.6076 619.976 49.3196 620.024 48.7676 620.024C48.1196 620.024 46.3916 620.024 44.5916 619.832C44.9516 620.336 45.1916 621.056 45.2156 621.584C46.8716 621.704 48.5276 621.752 49.4396 621.68C50.3516 621.608 50.9276 621.416 51.4796 620.816C52.4156 619.808 52.7996 616.952 53.2316 609.224C53.2556 608.984 53.2556 608.36 53.2556 608.36H42.5996C42.7676 606.704 42.8396 605.048 42.8876 603.464H55.4396Z" fill="white" fill-opacity="0.65"/>
<path d="M45.8876 648.04V638.368H54.1676V636.616H45.8876V629.008H44.0156V636.616H35.8556V638.368H44.0156V648.04H34.3436V649.792H55.7036V648.04H45.8876Z" fill="white" fill-opacity="0.65"/>
<path d="M52.6556 663.576V675.792H45.8156V658.416H43.9916V675.792H37.3916V663.6H35.5916V679.536H37.3916V677.592H52.6556V679.44H54.4796V663.576H52.6556Z" fill="white" fill-opacity="0.65"/>
<path d="M55.7036 696.32H45.8636V690.32C48.6716 689.864 51.2636 689.336 53.3516 688.712L51.9836 687.248C48.1916 688.448 41.4236 689.384 35.6156 689.912C35.8076 690.32 36.0716 691.04 36.1196 691.496C38.6636 691.28 41.3756 690.992 44.0156 690.608V696.32H34.3436V698.072H44.0156V708.848H45.8636V698.072H55.7036V696.32Z" fill="white" fill-opacity="0.65"/>
<path d="M36.8876 717.232V725.32C36.8876 729.424 36.5756 733.552 33.7676 736.768C34.1996 737.032 34.9196 737.608 35.2316 738.016C38.3276 734.464 38.6876 729.904 38.6876 725.344V717.232H36.8876ZM44.4716 718.216V735.736H46.2716V718.216H44.4716ZM52.4876 717.16V737.8H54.3116V717.16H52.4876Z" fill="white" fill-opacity="0.65"/>
<path d="M55.8476 755.568H45.9596V753.216C48.6236 751.776 51.7676 749.544 53.8076 747.48L52.5116 746.496L52.0796 746.592H36.6956V748.32H50.2076C48.8156 749.52 46.9676 750.792 45.2636 751.728H44.1356V755.568H34.2236V757.344H44.1356V764.52C44.1356 764.952 43.9916 765.072 43.4636 765.096C42.9596 765.12 41.1836 765.12 39.2636 765.048C39.5756 765.552 39.8876 766.368 40.0316 766.872C42.3116 766.896 43.8716 766.848 44.7596 766.56C45.6476 766.272 45.9596 765.72 45.9596 764.52V757.344H55.8476V755.568Z" fill="white" fill-opacity="0.65"/>
<path d="M44.1596 774.272V793.352C44.1596 793.832 43.9676 794 43.4636 794C43.0076 794.024 41.2796 794.048 39.5276 793.976C39.8156 794.48 40.1516 795.32 40.2716 795.824C42.5036 795.848 43.9916 795.8 44.8556 795.512C45.6956 795.2 46.0556 794.672 46.0556 793.352V774.272H44.1596ZM49.8956 780.32C51.9356 783.752 53.8556 788.216 54.4316 791.048L56.3036 790.256C55.7036 787.4 53.6876 783.032 51.5756 779.672L49.8956 780.32ZM37.8956 779.84C37.3196 783.056 35.9996 787.184 33.8636 789.704C34.3436 789.896 35.1116 790.328 35.5436 790.64C37.7036 787.976 39.0956 783.68 39.8636 780.2L37.8956 779.84Z" fill="white" fill-opacity="0.65"/>
<path d="M37.9436 820.408V807.184H52.0556V820.408H37.9436ZM36.1436 805.408V824.248H37.9436V822.208H52.0556V824.128H53.9516V805.408H36.1436Z" fill="white" fill-opacity="0.65"/>
<path d="M55.7756 844.272H45.9356V840.384H54.4316V838.68H45.9356V834.792C48.7676 834.456 51.3836 834 53.4236 833.376L52.0796 831.96C48.4796 833.088 41.5196 833.712 35.8556 833.976C36.0236 834.384 36.2396 835.08 36.3116 835.56C38.7836 835.44 41.4956 835.272 44.1356 834.984V838.68H35.8796V840.384H44.1356V844.272H34.2716V846.024H44.1356V851.328C44.1356 851.832 43.9196 852 43.3916 852C42.8396 852.024 40.9676 852.048 38.9516 851.976C39.2396 852.456 39.5756 853.248 39.7196 853.752C42.2396 853.776 43.7756 853.728 44.6636 853.44C45.5516 853.152 45.9356 852.624 45.9356 851.352V846.024H55.7756V844.272Z" fill="white" fill-opacity="0.65"/>
<path d="M49.8476 872V879.776H41.7356C42.2396 877.616 42.8156 874.856 43.3676 872H49.8476ZM51.6476 879.776V870.248H43.7276C44.0636 868.448 44.3996 866.648 44.6876 864.992H53.9036V863.24H35.9516V864.992H42.7436C42.4796 866.648 42.1676 868.424 41.8076 870.248H36.8876V872H41.4716C40.9196 874.832 40.3196 877.592 39.7916 879.776H34.4396V881.504H55.6316V879.776H51.6476Z" fill="white" fill-opacity="0.65"/>
<path d="M39.1196 908.248V901.552H51.0236V908.248H39.1196ZM51.0236 893.32V899.8H39.1196V893.32H51.0236ZM37.3196 891.568V911.56H39.1196V910H51.0236V911.464H52.8956V891.568H37.3196Z" fill="white" fill-opacity="0.65"/>
</svg>
