<svg width="65" height="65" viewBox="0 0 65 65" fill="none" xmlns="http://www.w3.org/2000/svg">
<circle cx="32.5" cy="32.5" r="31.5" fill="#3D3D3D" stroke="#101010" stroke-width="2"/>
<path d="M32.2929 44.2071C32.6834 44.5976 33.3166 44.5976 33.7071 44.2071L40.0711 37.8431C40.4616 37.4526 40.4616 36.8195 40.0711 36.4289C39.6805 36.0384 39.0474 36.0384 38.6569 36.4289L33 42.0858L27.3431 36.4289C26.9526 36.0384 26.3195 36.0384 25.9289 36.4289C25.5384 36.8195 25.5384 37.4526 25.9289 37.8431L32.2929 44.2071ZM34 21C34 20.4477 33.5523 20 33 20C32.4477 20 32 20.4477 32 21L34 21ZM34 43.5L34 21L32 21L32 43.5L34 43.5Z" fill="white"/>
</svg>
